HIERARCHY
ROOT Hips
{
	OFFSET 0.00000 0.00000 0.00000
	CHANNELS 6 Xposition Yposition Zposition Zrotation Yrotation Xrotation 
	JOINT LHipJoint
	{
		OFFSET 0 0 0
		CHANNELS 3 Zrotation Yrotation Xrotation
		JOINT LeftUpLeg
		{
			OFFSET 1.62964 -1.40469 0.78906
			CHANNELS 3 Zrotation Yrotation Xrotation
			JOINT LeftLeg
			{
				OFFSET 2.29640 -6.30932 0.00000
				CHANNELS 3 Zrotation Yrotation Xrotation
				JOINT LeftFoot
				{
					OFFSET 2.29451 -6.30412 0.00000
					CHANNELS 3 Zrotation Yrotation Xrotation
					JOINT LeftToeBase
					{
						OFFSET 0.03611 -0.09921 1.56387
						CHANNELS 3 Zrotation Yrotation Xrotation
						End Site
						{
							OFFSET 0.00000 -0.00000 0.80291
						}
					}
				}
			}
		}
	}
	JOINT RHipJoint
	{
		OFFSET 0 0 0
		CHANNELS 3 Zrotation Yrotation Xrotation
		JOINT RightUpLeg
		{
			OFFSET -1.73712 -1.40469 0.78906
			CHANNELS 3 Zrotation Yrotation Xrotation
			JOINT RightLeg
			{
				OFFSET -2.28137 -6.26801 0.00000
				CHANNELS 3 Zrotation Yrotation Xrotation
				JOINT RightFoot
				{
					OFFSET -2.28681 -6.28298 0.00000
					CHANNELS 3 Zrotation Yrotation Xrotation
					JOINT RightToeBase
					{
						OFFSET -0.15927 -0.43759 1.61103
						CHANNELS 3 Zrotation Yrotation Xrotation
						End Site
						{
							OFFSET -0.00000 -0.00000 0.84630
						}
					}
				}
			}
		}
	}
	JOINT LowerBack
	{
		OFFSET 0 0 0
		CHANNELS 3 Zrotation Yrotation Xrotation
		JOINT Spine
		{
			OFFSET -0.04227 2.04338 -0.00225
			CHANNELS 3 Zrotation Yrotation Xrotation
			JOINT Spine1
			{
				OFFSET -0.02148 2.04482 -0.04273
				CHANNELS 3 Zrotation Yrotation Xrotation
				JOINT Neck
				{
					OFFSET 0 0 0
					CHANNELS 3 Zrotation Yrotation Xrotation
					JOINT Neck1
					{
						OFFSET 0.09180 1.44629 0.19359
						CHANNELS 3 Zrotation Yrotation Xrotation
						JOINT Head
						{
							OFFSET 0.00887 1.40645 0.14750
							CHANNELS 3 Zrotation Yrotation Xrotation
							End Site
							{
								OFFSET -0.00669 1.50671 0.03707
							}
						}
					}
				}
				JOINT LeftShoulder
				{
					OFFSET 0 0 0
					CHANNELS 3 Zrotation Yrotation Xrotation
					JOINT LeftArm
					{
						OFFSET 2.17674 1.86763 -0.06520
						CHANNELS 3 Zrotation Yrotation Xrotation
						JOINT LeftForeArm
						{
							OFFSET 4.65776 -0.00000 0.00000
							CHANNELS 3 Zrotation Yrotation Xrotation
							JOINT LeftHand
							{
								OFFSET 3.55539 -0.00000 0.00000
								CHANNELS 3 Zrotation Yrotation Xrotation
								JOINT LeftFingerBase
								{
									OFFSET 0 0 0
									CHANNELS 3 Zrotation Yrotation Xrotation
									JOINT LeftHandIndex1
									{
										OFFSET 0.70726 -0.00000 0.00000
										CHANNELS 3 Zrotation Yrotation Xrotation
										End Site
										{
											OFFSET 0.57022 -0.00000 0.00000
										}
									}
								}
								JOINT LThumb
								{
									OFFSET 0 0 0
									CHANNELS 3 Zrotation Yrotation Xrotation
									End Site
									{
										OFFSET 0.57892 -0.00000 0.57892
									}
								}
							}
						}
					}
				}
				JOINT RightShoulder
				{
					OFFSET 0 0 0
					CHANNELS 3 Zrotation Yrotation Xrotation
					JOINT RightArm
					{
						OFFSET -2.80694 1.55459 -0.32496
						CHANNELS 3 Zrotation Yrotation Xrotation
						JOINT RightForeArm
						{
							OFFSET -4.71925 -0.00000 -0.00000
							CHANNELS 3 Zrotation Yrotation Xrotation
							JOINT RightHand
							{
								OFFSET -3.56990 -0.00000 0.00000
								CHANNELS 3 Zrotation Yrotation Xrotation
								JOINT RightFingerBase
								{
									OFFSET 0 0 0
									CHANNELS 3 Zrotation Yrotation Xrotation
									JOINT RightHandIndex1
									{
										OFFSET -0.50776 -0.00000 0.00000
										CHANNELS 3 Zrotation Yrotation Xrotation
										End Site
										{
											OFFSET -0.40937 -0.00000 0.00000
										}
									}
								}
								JOINT RThumb
								{
									OFFSET 0 0 0
									CHANNELS 3 Zrotation Yrotation Xrotation
									End Site
									{
										OFFSET -0.41562 -0.00000 0.41562
									}
								}
							}
						}
					}
				}
			}
		}
	}
}
MOTION
Frames: 8
Frame Time: .0083333
7.1003 16.3257 31.3131 0 0 0 0 0 0 -21 0 0 0 0 0 0 0 0 0 0 0 0 0 0 21 0 0 0 0 0 0 0 0 0 0 0 0 0 0 0 0 0 0 0 0 0 0 -16 0 0 21 0 0 11 0 0 0 -8 0 0 0 0 0 0 0 0 0 0 0 0 0 0 0 0 0 0 0 0 8 0 0 0 0 0 0 0 0 0 0 0 0 0 0 0 0 0
7.1003 16.3257 31.3131 178.3450 -4.6418 -155.7600 0.0000 0.0000 0.0000 -18.7214 -15.8895 -18.4106 0.2542 3.2439 8.9587 0.2806 0.0180 -10.0131 2.8420 -10.4348 -30.3965 0.0000 0.0000 0.0000 18.8590 13.1404 -17.8467 -0.1117 -2.1548 5.9338 -1.1380 -2.6292 -21.2565 -2.8768 10.4928 -30.5879 -6.7499 -2.1121 -28.2462 0.1838 -1.0736 -0.4717 3.4248 -1.1453 14.5912 -1.8896 -3.3312 -0.9632 2.9589 -6.7555 20.2709 0.7910 -3.8251 6.4744 -0.0000 -0.0000 0.0000 -85.0227 -3.3877 21.8450 17.7945 -27.8933 -4.4527 -0.0000 -0.0000 0.1075 23.8267 -14.0866 -6.1347 -7.1250 0.0000 -0.0000 -2.4678 14.6501 1.7651 -0.0000 -0.0000 0.0000 91.1015 -4.7884 -1.6692 -14.4640 23.3941 -3.0099 0.0000 0.0000 7.8461 -15.1751 -55.9099 12.6596 7.1250 -0.0000 -0.0000 78.3761 -77.4704 -65.5406
7.0988 16.3276 31.3094 178.3960 -4.6111 -155.6950 0.0000 0.0000 0.0000 -18.6535 -15.8737 -18.4695 0.2531 3.2368 8.9387 0.2835 -0.0206 -10.0499 2.7576 -10.2919 -29.9273 0.0000 0.0000 0.0000 18.8921 13.2188 -17.8701 -0.1100 -2.1389 5.8897 -1.1362 -2.6314 -21.2415 -2.8381 10.4282 -30.3749 -6.6660 -2.1127 -28.2868 0.1772 -1.1009 -0.4827 3.3602 -1.1526 14.5996 -1.8103 -3.3467 -0.8983 3.0014 -6.7469 20.0211 0.7983 -3.8049 6.3819 -0.0000 0.0000 0.0000 -84.9725 -3.4267 22.1227 18.0014 -28.1589 -4.5499 -0.0000 -0.0000 0.0333 23.8766 -14.0887 -6.1500 -7.1250 0.0000 -0.0000 -2.4339 14.6420 1.7412 -0.0000 0.0000 0.0000 91.1445 -4.7003 -1.3399 -14.6613 23.6721 -3.0887 0.0000 0.0000 7.5278 -15.0796 -55.5299 12.5239 7.1250 -0.0000 -0.0000 76.6520 -77.4060 -63.7968
7.0966 16.3278 31.3046 178.3960 -4.5124 -155.6600 0.0000 0.0000 0.0000 -18.6915 -15.8434 -18.4299 0.2484 3.2068 8.8551 0.2856 0.0471 -10.1121 2.7633 -10.3017 -29.9594 0.0000 0.0000 0.0000 18.8894 13.0318 -17.9335 -0.1074 -2.1129 5.8177 -1.1200 -2.4703 -21.0226 -2.8704 10.4822 -30.5528 -6.6187 -2.0858 -28.2834 0.1599 -1.0889 -0.5376 3.3198 -1.1435 14.5315 -1.7578 -3.4099 -0.6162 2.9839 -6.7881 19.6473 0.7960 -3.8196 6.2130 0.0000 -0.0000 0.0000 -84.9481 -3.3333 22.5123 18.2144 -28.4309 -4.6509 -0.0000 0.0000 -0.1581 23.9953 -14.0594 -6.1717 -7.1250 0.0000 -0.0000 -2.3512 14.6595 1.6811 0.0000 -0.0000 0.0000 91.1515 -4.6486 -1.3252 -14.7585 23.8086 -3.1278 0.0000 0.0000 7.4461 -14.3636 -54.9595 11.8413 7.1250 -0.0000 -0.0000 74.1666 -77.0679 -61.0390
7.0946 16.3253 31.2996 178.2440 -4.3911 -155.7260 0.0000 0.0000 0.0000 -18.9611 -15.7595 -18.2668 0.2437 3.1765 8.7706 0.2845 0.1081 -10.1148 2.8564 -10.4589 -30.4760 0.0000 0.0000 0.0000 18.7396 12.6853 -17.9043 -0.1042 -2.0813 5.7304 -1.1089 -2.2515 -20.8222 -2.9806 10.6637 -31.1537 -6.7785 -2.1276 -28.1597 0.1603 -1.1028 -0.5591 3.4040 -1.1582 14.4507 -1.7258 -3.4755 -0.4822 2.8175 -6.8118 19.3982 0.7454 -3.8348 6.1048 -0.0000 -0.0000 0.0000 -85.0103 -3.2810 22.7315 18.3637 -28.6204 -4.7222 -0.0000 0.0000 -0.1982 23.9365 -14.1711 -6.2023 -7.1250 0.0000 -0.0000 -2.3984 14.5460 1.7207 -0.0000 -0.0000 0.0000 91.0521 -4.5956 -1.1362 -14.8728 23.9686 -3.1741 0.0000 0.0000 7.2916 -13.8856 -54.8329 11.4248 7.1250 -0.0000 -0.0000 73.6857 -76.8672 -60.3608
7.0937 16.3233 31.2956 178.2000 -4.3219 -155.7800 0.0000 0.0000 0.0000 -19.0468 -15.7306 -18.1592 0.2398 3.1516 8.7012 0.2822 0.1763 -10.0998 2.8261 -10.4080 -30.3084 0.0000 0.0000 0.0000 18.6787 12.7418 -17.8225 -0.1049 -2.0886 5.7507 -1.1193 -2.2168 -20.8978 -3.0022 10.6986 -31.2698 -6.8385 -2.1612 -28.0770 0.1878 -1.1371 -0.5684 3.4553 -1.1766 14.4062 -1.7549 -3.4622 -0.5170 2.7373 -6.7689 19.3814 0.7269 -3.8188 6.1025 0.0000 0.0000 0.0000 -85.0409 -3.2690 22.8937 18.4760 -28.7624 -4.7761 -0.0000 0.0000 -0.1625 23.9754 -14.3062 -6.2711 -7.1250 0.0000 -0.0000 -2.3807 14.3953 1.7156 0.0000 0.0000 0.0000 90.9760 -4.5643 -0.6889 -15.0654 24.2371 -3.2527 0.0000 0.0000 6.9330 -13.9812 -54.8458 11.5063 7.1250 -0.0000 -0.0000 73.7261 -76.9056 -60.4413
7.0914 16.3236 31.2924 178.2750 -4.2492 -155.7580 0.0000 0.0000 0.0000 -18.9662 -15.7574 -18.1217 0.2344 3.1163 8.6026 0.2814 0.2908 -10.1301 2.7580 -10.2926 -29.9296 0.0000 0.0000 0.0000 18.7287 12.9322 -17.8194 -0.1070 -2.1097 5.8089 -1.1295 -2.2149 -20.9875 -2.9716 10.6490 -31.1050 -6.7365 -2.1348 -28.0959 0.1992 -1.1417 -0.6022 3.4098 -1.1724 14.3757 -1.7837 -3.4243 -0.4300 2.7727 -6.7214 19.3320 0.7487 -3.7980 6.0726 -0.0000 0.0000 0.0000 -85.0202 -3.2200 23.0537 18.5776 -28.8905 -4.8251 -0.0000 0.0000 -0.1666 23.9241 -14.5518 -6.3603 -7.1250 0.0000 -0.0000 -2.4318 14.1364 1.7658 -0.0000 0.0000 0.0000 91.0006 -4.5562 -0.3264 -15.2530 24.4974 -3.3302 0.0000 0.0000 6.6413 -14.5729 -55.0865 12.0344 7.1250 -0.0000 -0.0000 74.7012 -77.1649 -61.6562
7.0897 16.3249 31.2906 178.2460 -4.1210 -155.7340 0.0000 0.0000 0.0000 -19.0342 -15.7382 -18.1052 0.2333 3.1089 8.5822 0.2851 0.3422 -10.2154 2.7766 -10.3243 -30.0334 0.0000 0.0000 0.0000 18.6565 13.0256 -17.8102 -0.1065 -2.1041 5.7934 -1.1306 -2.2066 -20.9933 -2.9558 10.6231 -31.0191 -6.7558 -2.1124 -28.1022 0.1735 -1.1080 -0.6288 3.4047 -1.1584 14.3431 -1.8318 -3.3793 -0.3467 2.8857 -6.6712 19.2565 0.7983 -3.7709 6.0382 0.0000 0.0000 0.0000 -84.9754 -3.2208 23.2403 18.5990 -28.9174 -4.8354 -0.0000 0.0000 -0.1833 23.6923 -14.7258 -6.3646 -7.1250 0.0000 -0.0000 -2.6003 13.9773 1.8973 0.0000 0.0000 0.0000 91.0511 -4.5494 -0.0742 -15.4385 24.7534 -3.4074 0.0000 0.0000 6.4056 -14.9943 -55.4594 12.4418 7.1250 -0.0000 -0.0000 76.3355 -77.3672 -63.4486
